<svg width="18" height="12" viewBox="0 0 18 12" fill="none" xmlns="http://www.w3.org/2000/svg">
<path d="M9.50001 3C9.50001 2.72386 9.27616 2.5 9.00001 2.5C8.72387 2.5 8.50001 2.72386 8.50001 3H9.50001ZM8.50001 7C8.50001 7.27614 8.72387 7.5 9.00001 7.5C9.27616 7.5 9.50001 7.27614 9.50001 7H8.50001ZM9.50001 8.98047C9.50001 8.70433 9.27616 8.48047 9.00001 8.48047C8.72387 8.48047 8.50001 8.70433 8.50001 8.98047H9.50001ZM8.50001 9C8.50001 9.27614 8.72387 9.5 9.00001 9.5C9.27616 9.5 9.50001 9.27614 9.50001 9H8.50001ZM15.6358 0.687047C15.463 0.471684 15.1483 0.437212 14.9329 0.610051C14.7176 0.78289 14.6831 1.09759 14.8559 1.31295L15.6358 0.687047ZM3.14406 1.31295C3.3169 1.09759 3.28243 0.78289 3.06706 0.610051C2.8517 0.437212 2.537 0.471684 2.36416 0.687047L3.14406 1.31295ZM2.36416 11.313C2.537 11.5283 2.8517 11.5628 3.06706 11.3899C3.28243 11.2171 3.3169 10.9024 3.14406 10.687L2.36416 11.313ZM14.8559 10.687C14.6831 10.9024 14.7176 11.2171 14.9329 11.3899C15.1483 11.5628 15.463 11.5283 15.6358 11.313L14.8559 10.687ZM13.5 6C13.5 8.48528 11.4853 10.5 9.00001 10.5V11.5C12.0376 11.5 14.5 9.03757 14.5 6H13.5ZM9.00001 10.5C6.51473 10.5 4.50001 8.48528 4.50001 6H3.50001C3.50001 9.03757 5.96245 11.5 9.00001 11.5V10.5ZM4.50001 6C4.50001 3.51472 6.51473 1.5 9.00001 1.5V0.5C5.96245 0.5 3.50001 2.96243 3.50001 6H4.50001ZM9.00001 1.5C11.4853 1.5 13.5 3.51472 13.5 6H14.5C14.5 2.96243 12.0376 0.5 9.00001 0.5V1.5ZM8.50001 3V7H9.50001V3H8.50001ZM8.50001 8.98047V9H9.50001V8.98047H8.50001ZM3.14406 10.687C0.95198 7.95565 0.95198 4.04435 3.14406 1.31295L2.36416 0.687047C-0.121387 3.78412 -0.121387 8.21589 2.36416 11.313L3.14406 10.687ZM14.8559 1.31295C17.048 4.04435 17.048 7.95565 14.8559 10.687L15.6358 11.313C18.1214 8.21588 18.1214 3.78411 15.6358 0.687047L14.8559 1.31295Z" fill="#979797"/>
</svg>
