<?xml version="1.0" encoding="UTF-8" standalone="no"?><!DOCTYPE svg PUBLIC "-//W3C//DTD SVG 1.1//EN" "http://www.w3.org/Graphics/SVG/1.1/DTD/svg11.dtd"><svg width="100%" height="100%" viewBox="0 0 468 468" version="1.1" xmlns="http://www.w3.org/2000/svg" xmlns:xlink="http://www.w3.org/1999/xlink" xml:space="preserve" xmlns:serif="http://www.serif.com/" style="fill-rule:evenodd;clip-rule:evenodd;stroke-linejoin:round;stroke-miterlimit:1.41421;"><path d="M234.172,0c45.271,0.107 90.338,13.584 128.056,38.422c58.277,38.374 98.015,103.284 104.52,173.846c3.848,41.739 -3.706,84.628 -21.79,122.439c-24.567,51.365 -68.589,93.251 -121.113,115.2c-56.432,23.58 -122.248,23.969 -179.443,0.273c-52.639,-21.807 -96.746,-63.568 -121.464,-114.832c-26.233,-54.407 -30.208,-119.352 -10.672,-176.743c16.393,-48.159 49,-90.495 91.042,-118.817c36.487,-24.579 80.179,-38.519 124.082,-39.702c2.261,-0.061 4.523,-0.088 6.782,-0.086Zm155.372,96.621l-293.03,293.03c17.004,15.028 36.405,27.337 57.332,36.082c50.317,21.029 108.941,21.112 159.313,0.243c46.692,-19.344 85.892,-56.38 107.892,-102.007c23.413,-48.558 26.84,-106.399 9.264,-157.524c-8.81,-25.623 -22.813,-49.439 -40.771,-69.824Zm-18.506,-18.546c-6.132,-5.422 -12.587,-10.487 -19.33,-15.149c-34.147,-23.607 -75.754,-36.494 -116.906,-36.724c-0.448,-0.002 -0.896,-0.003 -1.344,-0.003c-40.135,0.096 -79.979,11.979 -113.428,33.932c-46.186,30.313 -79.496,79.306 -90.141,133.864c-8.445,43.278 -2.776,89.219 16.24,129.122c8.286,17.386 19.084,33.563 31.857,48.01l293.052,-293.052Z"/></svg>