<svg width="18" height="24" fill="none" xmlns="http://www.w3.org/2000/svg"><path fill="none" d="M1 1h16.136v22H1z"/><path fill-rule="evenodd" clip-rule="evenodd" d="M14.773 3.297a7.73 7.73 0 0 1 2.363 5.544c0 4.763-4.052 10.464-6.413 13.38-.84 1.038-2.47 1.038-3.31 0C5.053 19.306 1 13.605 1 8.842c0-2.08.85-4.074 2.363-5.544A8.187 8.187 0 0 1 9.068 1c2.14 0 4.191.826 5.705 2.297zM9.068 13c2.228 0 4.034-1.79 4.034-4s-1.806-4-4.034-4C6.84 5 5.034 6.79 5.034 9s1.806 4 4.034 4z" fill="#007AFF"/><path d="M13.102 9c0 2.21-1.806 4-4.034 4-2.228 0-4.034-1.79-4.034-4S6.84 5 9.068 5c2.228 0 4.034 1.79 4.034 4z" fill="#007AFF"/><path d="M13.101 9c0 2.21-1.806 4-4.033 4-2.228 0-4.034-1.79-4.034-4S6.84 5 9.068 5c2.227 0 4.034 1.79 4.034 4z" fill="#fff"/></svg>