<svg width="18" height="12" viewBox="0 0 18 12" fill="none" xmlns="http://www.w3.org/2000/svg">
<path d="M1 7.36353V6.86353C0.723858 6.86353 0.5 7.08738 0.5 7.36353H1ZM11 10.9999V11.4999C11.2761 11.4999 11.5 11.276 11.5 10.9999H11ZM1 10.9999H0.5C0.5 11.276 0.723858 11.4999 1 11.4999V10.9999ZM16.5 11C16.5 11.2761 16.7239 11.5 17 11.5C17.2761 11.5 17.5 11.2761 17.5 11H16.5ZM5 2.81818L4.66366 2.44821C4.55943 2.54297 4.5 2.67731 4.5 2.81818C4.5 2.95905 4.55943 3.09339 4.66366 3.18815L5 2.81818ZM7.33634 1.36997C7.54067 1.18422 7.55572 0.867992 7.36997 0.663664C7.18422 0.459335 6.86799 0.444277 6.66366 0.63003L7.33634 1.36997ZM6.66366 5.00633C6.86799 5.19209 7.18422 5.17703 7.36997 4.9727C7.55572 4.76837 7.54067 4.45215 7.33634 4.26639L6.66366 5.00633ZM1 7.86353H7V6.86353H1V7.86353ZM7 7.86353C8.97891 7.86353 10.5 9.3115 10.5 10.9999H11.5C11.5 8.67166 9.43937 6.86353 7 6.86353V7.86353ZM11 10.4999H1V11.4999H11V10.4999ZM1.5 10.9999V7.36353H0.5V10.9999H1.5ZM16.5 10.8182V11H17.5V10.8182H16.5ZM5 3.31818H9V2.31818H5V3.31818ZM6.66366 0.63003L4.66366 2.44821L5.33634 3.18815L7.33634 1.36997L6.66366 0.63003ZM4.66366 3.18815L6.66366 5.00633L7.33634 4.26639L5.33634 2.44821L4.66366 3.18815ZM17.5 10.8182C17.5 6.12376 13.6944 2.31818 9 2.31818V3.31818C13.1421 3.31818 16.5 6.67605 16.5 10.8182H17.5Z" fill="#979797"/>
</svg>
