<svg xmlns="http://www.w3.org/2000/svg" viewBox="0 0 16 16">
  <path d="M1 1v1h2c.22 0 .4.13.47.34l.93 8.33A1.5 1.5 0 0 0 5.9 12H12v-1H5.9a.5.5 0 0 1-.5-.44L5.33 10h6.35c.71 0 1.33-.5 1.47-1.2l.96-4.8H4.66l-.21-1.9-.02-.05A1.5 1.5 0 0 0 3 .99H1zm10 11a1 1 0 0 0-1 1 1 1 0 0 0 1 1 1 1 0 0 0 1-1 1 1 0 0 0-1-1zm-5 0a1 1 0 0 0-1 1 1 1 0 0 0 1 1 1 1 0 0 0 1-1 1 1 0 0 0-1-1zM4.77 5h8.12l-.72 3.6a.5.5 0 0 1-.49.4H5.22l-.45-4z" font-family="sans-serif" font-weight="400" overflow="visible" style="line-height:normal;text-indent:0;text-align:start;text-decoration-line:none;text-decoration-style:solid;text-decoration-color:#000;text-transform:none;block-progression:tb;isolation:auto;mix-blend-mode:normal"/>
</svg>
