<svg width="18" height="12" viewBox="0 0 18 12" fill="none" xmlns="http://www.w3.org/2000/svg">
<path d="M3.32664 9.07143C3.60278 9.07143 3.82664 8.84757 3.82664 8.57143C3.82664 8.29529 3.60278 8.07143 3.32664 8.07143V9.07143ZM2.39609 6.92004C2.46439 6.65247 2.30285 6.38021 2.03529 6.31191C1.76772 6.24362 1.49545 6.40515 1.42716 6.67272L2.39609 6.92004ZM2.88572 0.958433C2.81743 1.226 2.97897 1.49826 3.24653 1.56656C3.51409 1.63485 3.78636 1.47332 3.85466 1.20575L2.88572 0.958433ZM15.5911 5.36781L15.1066 5.49147H15.1066L15.5911 5.36781ZM15.9557 6.79638L16.4402 6.67272V6.67272L15.9557 6.79638ZM7.45431 3.092L6.96139 3.17588L7.45431 3.092ZM5.10497 4.07143C5.38111 4.07143 5.60497 3.84757 5.60497 3.57143C5.60497 3.29529 5.38111 3.07143 5.10497 3.07143V4.07143ZM0 3.07143C-0.276142 3.07143 -0.5 3.29529 -0.5 3.57143C-0.5 3.84757 -0.276142 4.07143 0 4.07143V3.07143ZM4.37569 2.64286C4.65183 2.64286 4.87569 2.419 4.87569 2.14286C4.87569 1.86671 4.65183 1.64286 4.37569 1.64286V2.64286ZM1.45856 1.64286C1.18242 1.64286 0.958562 1.86671 0.958562 2.14286C0.958562 2.419 1.18242 2.64286 1.45856 2.64286V1.64286ZM0.729281 4.5C0.453139 4.5 0.229281 4.72386 0.229281 5C0.229281 5.27614 0.453139 5.5 0.729281 5.5V4.5ZM4.37569 5.5C4.65183 5.5 4.87569 5.27614 4.87569 5C4.87569 4.72386 4.65183 4.5 4.37569 4.5V5.5ZM6.06352 8.57143C6.06352 9.07452 5.6442 9.5 5.10495 9.5V10.5C6.17679 10.5 7.06352 9.64629 7.06352 8.57143H6.06352ZM5.10495 9.5C4.56571 9.5 4.14639 9.07452 4.14639 8.57143H3.14639C3.14639 9.64629 4.03311 10.5 5.10495 10.5V9.5ZM4.14639 8.57143C4.14639 8.06833 4.56571 7.64286 5.10495 7.64286V6.64286C4.03311 6.64286 3.14639 7.49657 3.14639 8.57143H4.14639ZM5.10495 7.64286C5.6442 7.64286 6.06352 8.06833 6.06352 8.57143H7.06352C7.06352 7.49657 6.17679 6.64286 5.10495 6.64286V7.64286ZM12.627 8.57143C12.627 9.07452 12.2077 9.5 11.6685 9.5V10.5C12.7403 10.5 13.627 9.64629 13.627 8.57143H12.627ZM11.6685 9.5C11.1292 9.5 10.7099 9.07452 10.7099 8.57143H9.70992C9.70992 9.64629 10.5966 10.5 11.6685 10.5V9.5ZM10.7099 8.57143C10.7099 8.06833 11.1292 7.64286 11.6685 7.64286V6.64286C10.5966 6.64286 9.70992 7.49657 9.70992 8.57143H10.7099ZM11.6685 7.64286C12.2077 7.64286 12.627 8.06833 12.627 8.57143H13.627C13.627 7.49656 12.7403 6.64286 11.6685 6.64286V7.64286ZM12.7624 4.78571H14.1761V3.78571H12.7624V4.78571ZM15.1066 5.49147L15.4713 6.92004L16.4402 6.67272L16.0756 5.24415L15.1066 5.49147ZM12.7624 3.78571H8.89302V4.78571H12.7624V3.78571ZM4.7852 0.5H6.92816V-0.5H4.7852V0.5ZM6.92816 0.5H7.15813V-0.5H6.92816V0.5ZM7.94722 3.00812L7.42107 -0.0838771L6.43524 0.0838771L6.96139 3.17588L7.94722 3.00812ZM8.89302 3.78571C8.41632 3.78571 8.0223 3.44934 7.94722 3.00812L6.96139 3.17588C7.12075 4.11233 7.94372 4.78571 8.89302 4.78571V3.78571ZM14.1761 4.78571C14.6233 4.78571 15.0024 5.0831 15.1066 5.49147L16.0756 5.24415C15.8551 4.3806 15.0674 3.78571 14.1761 3.78571V4.78571ZM13.2469 4.16205C12.5459 1.41572 10.031 -0.5 7.15813 -0.5V0.5C9.58682 0.5 11.6931 2.11822 12.2779 4.40937L13.2469 4.16205ZM3.85466 1.20575C3.95889 0.797388 4.338 0.5 4.7852 0.5V-0.5C3.89383 -0.5 3.10614 0.0948903 2.88572 0.958433L3.85466 1.20575ZM15.4713 6.92004C15.6173 7.49234 15.177 8.07143 14.5407 8.07143V9.07143C15.8022 9.07143 16.7544 7.90369 16.4402 6.67272L15.4713 6.92004ZM3.32664 8.07143C2.69032 8.07143 2.25001 7.49234 2.39609 6.92004L1.42716 6.67272C1.11295 7.90369 2.06516 9.07143 3.32664 9.07143V8.07143ZM14.5407 8.07143H13.127V9.07143H14.5407V8.07143ZM10.2099 8.07143H6.56352V9.07143H10.2099V8.07143ZM5.10497 3.07143H0V4.07143H5.10497V3.07143ZM4.37569 1.64286H1.45856V2.64286H4.37569V1.64286ZM0.729281 5.5H4.37569V4.5H0.729281V5.5Z" transform="translate(1 1)" fill="#979797"/>
</svg>
