<svg width="18" height="18" viewBox="0 0 18 18" fill="none" xmlns="http://www.w3.org/2000/svg">
<path d="M11.6869 10.9798C11.4916 10.7845 11.175 10.7845 10.9798 10.9798C10.7845 11.175 10.7845 11.4916 10.9798 11.6869L11.6869 10.9798ZM15.6464 16.3536C15.8417 16.5488 16.1583 16.5488 16.3536 16.3536C16.5488 16.1583 16.5488 15.8417 16.3536 15.6464L15.6464 16.3536ZM12.8333 6.66667C12.8333 10.0724 10.0724 12.8333 6.66667 12.8333V13.8333C10.6247 13.8333 13.8333 10.6247 13.8333 6.66667H12.8333ZM6.66667 12.8333C3.26091 12.8333 0.5 10.0724 0.5 6.66667H-0.5C-0.5 10.6247 2.70863 13.8333 6.66667 13.8333V12.8333ZM0.5 6.66667C0.5 3.26091 3.26091 0.5 6.66667 0.5V-0.5C2.70863 -0.5 -0.5 2.70863 -0.5 6.66667H0.5ZM6.66667 0.5C10.0724 0.5 12.8333 3.26091 12.8333 6.66667H13.8333C13.8333 2.70863 10.6247 -0.5 6.66667 -0.5V0.5ZM10.9798 11.6869L15.6464 16.3536L16.3536 15.6464L11.6869 10.9798L10.9798 11.6869Z" transform="translate(1 1)" fill="#41474B"/>
</svg>
