<svg width="18" height="12" viewBox="0 0 18 12" fill="none" xmlns="http://www.w3.org/2000/svg">
<path d="M-0.232184 10.1246C-0.163353 10.3921 0.109238 10.553 0.376664 10.4842C0.644091 10.4154 0.805084 10.1428 0.736253 9.87537L-0.232184 10.1246ZM15.2637 9.87537C15.1949 10.1428 15.3559 10.4154 15.6233 10.4842C15.8908 10.553 16.1634 10.3921 16.2322 10.1246L15.2637 9.87537ZM11.7989 1.53181C12.0369 1.6719 12.3434 1.59255 12.4834 1.35458C12.6235 1.11661 12.5442 0.810131 12.3062 0.670044L11.7989 1.53181ZM15.3769 3.77456C15.2394 3.53506 14.9339 3.45234 14.6944 3.5898C14.4549 3.72726 14.3721 4.03285 14.5096 4.27235L15.3769 3.77456ZM8.70719 8.69252L9.06075 9.04608C9.07379 9.03303 9.0861 9.01928 9.09763 9.00487L8.70719 8.69252ZM7.29298 7.27831L6.98063 6.88788C6.96623 6.8994 6.95247 6.91171 6.93942 6.92476L7.29298 7.27831ZM14.3641 1.62141L14.7545 1.93376C14.9137 1.73482 14.8978 1.44801 14.7176 1.26786C14.5375 1.08771 14.2507 1.07182 14.0517 1.23098L14.3641 1.62141ZM0.5 8C0.5 3.85786 3.85786 0.5 8 0.5V-0.5C3.30558 -0.5 -0.5 3.30558 -0.5 8H0.5ZM0.736253 9.87537C0.582115 9.2765 0.5 8.64821 0.5 8H-0.5C-0.5 8.73299 -0.407104 9.44502 -0.232184 10.1246L0.736253 9.87537ZM15.5 8C15.5 8.64821 15.4179 9.2765 15.2637 9.87537L16.2322 10.1246C16.4071 9.44502 16.5 8.73299 16.5 8H15.5ZM8 0.5C9.38728 0.5 10.6852 0.87619 11.7989 1.53181L12.3062 0.670044C11.0429 -0.0736054 9.57051 -0.5 8 -0.5V0.5ZM14.5096 4.27235C15.1396 5.37 15.5 6.64215 15.5 8H16.5C16.5 6.46289 16.0915 5.01967 15.3769 3.77456L14.5096 4.27235ZM8.35364 8.33897C8.15838 8.53423 7.84179 8.53423 7.64653 8.33897L6.93942 9.04608C7.52521 9.63186 8.47496 9.63187 9.06075 9.04608L8.35364 8.33897ZM7.64653 8.33897C7.45127 8.14371 7.45127 7.82713 7.64653 7.63186L6.93942 6.92476C6.35364 7.51054 6.35364 8.46029 6.93942 9.04608L7.64653 8.33897ZM9.09763 9.00487L14.7545 1.93376L13.9737 1.30907L8.31676 8.38018L9.09763 9.00487ZM14.0517 1.23098L6.98063 6.88788L7.60533 7.66875L14.6764 2.01185L14.0517 1.23098Z" transform="translate(1 1)" fill="#979797"/>
</svg>
